<svg xmlns="http://www.w3.org/2000/svg" viewBox="0 0 85 151" aria-labelledby="title"><title>Smashing Magazine Social Channels: RSS Feed, Facebook, Twitter and The Smashing Newsletter</title><circle cx="57.928" cy="23.623" r="11.346" fill="#C96B6B"/><path fill="#FFF" d="M54.684 20.31l11.093-1.864 1.236 7.356-11.093 1.864z"/><path fill="#C96B6B" d="M67.06 26.083L56.19 27.91c-.24.04-.468-.123-.51-.362l-1.167-6.955c-.04-.24.12-.47.36-.51l10.87-1.825c.24-.04.468.122.508.363l1.17 6.956c.04.238-.122.467-.36.507zM54.995 20.8l1.073 6.393 3.27-3.835-4.343-2.56zm7.3 2.352l-.5.598c-.172.185-.392.333-.653.377-.26.043-.52-.024-.74-.144l-.67-.4-3.29 3.837 10.22-1.716-4.366-2.552zm-7-2.692l5.31 3.13c.148.087.31.128.464.103.15-.025.29-.118.404-.248l3.995-4.693-10.176 1.708zm10.57-1.486l-3.27 3.836 4.343 2.557-1.074-6.393z"/><path fill="#FFF" d="M53.763 21.78l-5.933.996-.142-.845 5.933-.996zM54.17 24.213l-4.187.704-.142-.845 4.19-.704zM54.58 26.652l-2.443.41-.142-.845 2.443-.41z"/><circle cx="57.928" cy="57.346" r="11.346" fill="#FB8A1C"/><circle cx="55.08" cy="60.109" r="1.399" fill="#FFF"/><path fill="#FFF" d="M53.684 56.584c1.31 0 2.543.512 3.468 1.442.927.932 1.437 2.172 1.437 3.492h2.02c0-3.834-3.107-6.953-6.926-6.953v2.02z"/><path fill="#FFF" d="M53.687 53.004c4.67 0 8.47 3.82 8.47 8.516h2.018c0-5.81-4.705-10.535-10.488-10.535v2.02z"/><circle cx="57.928" cy="90.578" r="11.346" fill="#1D679C"/><path fill="#FFF" d="M58.99 97.468h-2.85v-6.89h-1.426v-2.374h1.425V86.78c0-1.937.802-3.09 3.087-3.09h1.902v2.376h-1.19c-.888 0-.947.33-.947.95l-.004 1.19h2.154l-.253 2.374h-1.9v6.888z"/><circle cx="57.928" cy="126.375" r="11.346" fill="#0DA7CB"/><g><path fill="#FFF" d="M56.25 131.785c-.056 0-.085-.002-.085-.002h-.093c-2.292 0-3.78-1.127-3.84-1.175-.054-.04-.074-.11-.052-.174.022-.063.074-.105.15-.102l.235.003c1.74 0 2.617-.507 2.973-.792-1.826-.41-2.138-1.737-2.15-1.796-.01-.046 0-.093.03-.13.03-.036.073-.058.12-.058h.397c-1.5-.843-1.35-2.308-1.348-2.325.006-.054.04-.1.09-.123.05-.022.11-.016.153.015.18.128.375.187.546.212-1.397-1.315-.472-3.187-.46-3.207.022-.046.067-.077.118-.083.05-.006.102.014.135.053 1.896 2.217 3.624 2.548 4.486 2.548.12 0 .217-.006.288-.014-.207-2.507 1.54-2.893 1.557-2.897.303-.066.606-.1.9-.1 1.14 0 1.874.485 2.104.662l1.37-.555c.053-.02.112-.012.155.023s.064.09.055.146c-.062.37-.362.74-.63 1.003l.76-.14c.07-.014.137.02.167.083.03.062.016.137-.036.183l-1.26 1.128c.03.538.075 1.665-.433 2.87-1.9 4.512-5.668 4.74-6.404 4.74z"/></g></svg>